# xmcd CD database file
#
# Track frame offsets:
#	150
#	22036
#	38039
#	63612
#	88340
#	108873
#	118621
#	152741
#	169906
#	197926
#	218342
#	234748
#	249668
#	258611
#	275901
#	298869
#	322183
#
# Disc length: 4457 seconds
#
# Revision: 0
# Processed by: cddbd v1.5.2PL0 Copyright (c) Steve Scherf et al.
# Submitted via: jetAudio 7
#
DISCID=0c116711
DTITLE=Blackmore's Night - Fires At Midnight
DYEAR=1900
DGENRE=장르 없음
TTITLE0=Written In The Stars
TTITLE1=The Times They Are A Changin
TTITLE2=I Still Remember
TTITLE3=I Still Remember
TTITLE4=Crowning Of The King
TTITLE5=Fayre Thee Well
TTITLE6=Fires At Midnight
TTITLE7=Hanging Tree
TTITLE8=Storm
TTITLE9=Mid Winter's Night
TTITLE10=All Because Of You
TTITLE11=Waiting Just For You
TTITLE12=Praetorius (Courante)
TTITLE13=Benzai-Ten
TTITLE14=Village On The Sand
TTITLE15=Again Someday
TTITLE16=Possum's Last Dance
EXTD=
EXTT0=
EXTT1=
EXTT2=
EXTT3=
EXTT4=
EXTT5=
EXTT6=
EXTT7=
EXTT8=
EXTT9=
EXTT10=
EXTT11=
EXTT12=
EXTT13=
EXTT14=
EXTT15=
EXTT16=
PLAYORDER=
